<svg data-name="Layer 1" xmlns="http://www.w3.org/2000/svg" viewBox="0 0 60 60">
    <defs>
        <clipPath id="a">
            <path transform="rotate(-180 40.345 28.555)" fill="none" d="M34.39 21.14h11.92v14.83H34.39z"/>
        </clipPath>
        <clipPath id="b">
            <path fill="none" d="M14.39 21.14h11.92v14.83H14.39z"/>
        </clipPath>
        <clipPath id="c">
            <path data-name="&lt;Clipping Path&gt;" stroke-width="2" stroke-miterlimit="10" stroke="#2481d7" fill="#91c0eb" d="M30.17 5.04l-8.96 5.34v10.86l8.96 5.33 8.96-5.33V10.38l-8.96-5.34z"/>
        </clipPath>
    </defs>
    <path d="M58 25.79H2.35v25.28H24a6.84 6.84 0 0 0 12.34 0H58V25.79z" fill="#c8dff5" stroke-width="2" stroke-miterlimit="10" stroke="#2481d7"/>
    <path d="M30.17 20.45C22 12.91 9.86 18.76 9.86 18.76v23.79s11.38-5.47 19.5 1l.81.7.81-.7c8.12-6.46 19.5-1 19.5-1V18.76s-12.16-5.85-20.31 1.69zM30.17 20.45v23.47" fill="#fff" stroke-width="2" stroke-miterlimit="10" stroke="#2481d7"/>
    <g clip-path="url(#a)" stroke="#c8dff5" stroke-width="2" stroke-miterlimit="10" fill="none">
        <path d="M13 38.33a26.9 26.9 0 0 1 6.77-.94 18 18 0 0 1 10.37 3 17.52 17.52 0 0 1 10.23-3 20.31 20.31 0 0 1 6.63.94M47 33.82a18.84 18.84 0 0 0-6.38-1h-.42A14.94 14.94 0 0 0 32.25 35c-.52.25-1.68 1.17-2.16 1.5-.49-.33-1.66-1.25-2.18-1.5a15.28 15.28 0 0 0-8.06-2.17h-.35a23.64 23.64 0 0 0-6.53 1M47 29.31a18.16 18.16 0 0 0-6.51-1.12h-.44a13 13 0 0 0-7.91 2.61c-.26.12-1.83 1.53-2.07 1.69-.24-.16-1.83-1.57-2.1-1.69a13.11 13.11 0 0 0-8-2.61h-.36A20.72 20.72 0 0 0 13 29.31"/>
        <path d="M47 24.8a17.59 17.59 0 0 0-6.63-1.21A11.69 11.69 0 0 0 32 26.65l-2 1.88-2-1.88a11.72 11.72 0 0 0-8.32-3.05A18.35 18.35 0 0 0 13 24.8"/>
    </g>
    <g clip-path="url(#b)" stroke="#c8dff5" stroke-width="2" stroke-miterlimit="10" fill="none">
        <path d="M47.72 38.33a26.9 26.9 0 0 0-6.72-.95 18 18 0 0 0-10.37 3 17.52 17.52 0 0 0-10.23-3 20.31 20.31 0 0 0-6.63.94M13.72 33.82a18.84 18.84 0 0 1 6.38-1h.4A14.94 14.94 0 0 1 28.44 35c.52.25 1.68 1.17 2.16 1.5.49-.33 1.66-1.25 2.18-1.5a15.28 15.28 0 0 1 8.06-2.17h.36a23.64 23.64 0 0 1 6.53 1M13.72 29.31a18.16 18.16 0 0 1 6.51-1.12h.41a13 13 0 0 1 7.91 2.61c.26.12 1.83 1.53 2.07 1.69.24-.16 1.83-1.57 2.1-1.69a13.11 13.11 0 0 1 8-2.61h.34a20.72 20.72 0 0 1 6.64 1.12"/>
        <path d="M13.72 24.8a17.59 17.59 0 0 1 6.63-1.21 11.69 11.69 0 0 1 8.31 3.05l2 1.88 2-1.88A11.72 11.72 0 0 1 41 23.6a18.35 18.35 0 0 1 6.75 1.21"/>
    </g>
    <path data-name="&lt;Clipping Path&gt;" fill="#91c0eb" d="M30.17 5.04l-8.96 5.34v10.86l8.96 5.33 8.96-5.33V10.38l-8.96-5.34z"/>
    <g clip-path="url(#c)">
        <path fill="#c8dff5" d="M40.15 21.02l-9.76 7.06V14.96l9.76-5.04v11.1z"/>
    </g>
    <path data-name="&lt;Clipping Path&gt;" stroke-width="2" stroke-miterlimit="10" stroke="#2481d7" fill="none" d="M30.17 5.04l-8.96 5.34v10.86l8.96 5.33 8.96-5.33V10.38l-8.96-5.34z"/>
    <path stroke-width="2" fill="#fff" stroke-miterlimit="10" stroke="#2481d7" d="M30.17 5.04l-8.96 5.34 8.96 5.33 8.96-5.33-8.96-5.34zM30.17 15.71v10.87"/>
</svg>
